<?xml version="1.0" encoding="iso-8859-1"?>
<!-- Generator: Adobe Illustrator 19.0.0, SVG Export Plug-In . SVG Version: 6.00 Build 0)  -->
<svg version="1.1" id="Layer_1" xmlns="http://www.w3.org/2000/svg" xmlns:xlink="http://www.w3.org/1999/xlink" x="0px" y="0px"
	 viewBox="0 0 512 512" style="enable-background:new 0 0 512 512;" xml:space="preserve">
<path style="fill:#1E0478;" d="M266.379,74.546c115.878,5.441,208.473,101.401,208.473,218.601C474.853,413.822,376.674,512,256,512
	S37.147,413.822,37.147,293.147c0-117.2,92.595-213.16,208.473-218.601V61.064h-16.684c-5.725,0-10.379-4.643-10.379-10.379V10.379
	C218.558,4.654,223.212,0,228.937,0h54.115c5.736,0,10.379,4.654,10.379,10.379v40.305c0,5.736-4.643,10.379-10.379,10.379h-16.673
	V74.546L266.379,74.546z M453.001,293.147c0-108.623-88.378-197.001-197.001-197.001S58.999,184.524,58.999,293.147
	S147.377,490.149,256,490.149S453.001,401.771,453.001,293.147z M272.673,40.305V20.759h-33.356v19.546H272.673z"/>
<path style="fill:#94E7EF;" d="M256,96.146c108.623,0,197.001,88.378,197.001,197.001S364.623,490.149,256,490.149
	S58.999,401.771,58.999,293.147S147.377,96.146,256,96.146z M416.247,293.147C416.247,204.78,344.356,132.9,256,132.9
	S95.753,204.78,95.753,293.147c0,88.356,71.891,160.247,160.247,160.247S416.247,381.503,416.247,293.147z"/>
<path style="fill:#FFFFFF;" d="M395.106,282.768h-13.384c-5.725,0-10.379,4.643-10.379,10.379c0,5.725,4.654,10.379,10.379,10.379
	h13.384c-5.08,68.657-60.069,123.646-128.727,128.716v-13.373c0-5.725-4.643-10.379-10.379-10.379s-10.379,4.654-10.379,10.379
	v13.373c-68.657-5.07-123.646-60.059-128.727-128.716h13.384c5.725,0,10.379-4.654,10.379-10.379
	c0-5.736-4.654-10.379-10.379-10.379h-13.384c5.08-68.657,60.069-123.646,128.727-128.727v13.373
	c0,5.736,4.643,10.379,10.379,10.379s10.379-4.643,10.379-10.379v-13.373C335.036,159.122,390.026,214.111,395.106,282.768z
	 M334.512,228.369c1.792-3.933,0.951-8.577-2.109-11.636c-3.059-3.059-7.692-3.89-11.625-2.109l-94.977,43.167
	c-0.076,0.044-0.153,0.087-0.229,0.12c-0.153,0.076-0.317,0.153-0.47,0.24c-0.142,0.077-0.273,0.164-0.415,0.24
	c-0.131,0.087-0.273,0.175-0.404,0.262c-0.164,0.109-0.317,0.229-0.47,0.35c-0.109,0.076-0.219,0.153-0.317,0.229
	c-0.514,0.426-0.983,0.896-1.398,1.409c-0.087,0.098-0.164,0.208-0.24,0.317c-0.12,0.153-0.24,0.306-0.35,0.459
	c-0.087,0.142-0.175,0.284-0.262,0.426c-0.076,0.131-0.164,0.262-0.24,0.393c-0.076,0.164-0.164,0.328-0.24,0.481
	c-0.033,0.077-0.076,0.153-0.109,0.229l-43.167,94.966c-1.792,3.944-0.951,8.577,2.109,11.636c1.988,1.988,4.643,3.037,7.342,3.037
	c1.442,0,2.906-0.295,4.283-0.929l94.977-43.167c0.077-0.033,0.153-0.076,0.229-0.12c0.153-0.077,0.317-0.153,0.47-0.24
	c0.142-0.076,0.273-0.153,0.404-0.24c0.142-0.076,0.284-0.164,0.426-0.262c0.153-0.109,0.306-0.219,0.459-0.339
	c0.109-0.077,0.208-0.153,0.317-0.24c0.513-0.415,0.983-0.885,1.398-1.398c0.087-0.109,0.164-0.219,0.251-0.328
	c0.109-0.153,0.229-0.295,0.328-0.459c0.098-0.131,0.186-0.273,0.273-0.426c0.077-0.131,0.164-0.251,0.229-0.393
	c0.087-0.153,0.175-0.317,0.251-0.481c0.033-0.076,0.076-0.142,0.109-0.229L334.512,228.369z"/>
<g>
	<path style="fill:#1E0478;" d="M256,132.9c88.356,0,160.247,71.88,160.247,160.247c0,88.356-71.891,160.247-160.247,160.247
		S95.753,381.503,95.753,293.147C95.753,204.78,167.644,132.9,256,132.9z M381.722,282.768h13.384
		c-5.08-68.657-60.069-123.646-128.727-128.727v13.373c0,5.736-4.643,10.379-10.379,10.379s-10.379-4.643-10.379-10.379v-13.373
		c-68.657,5.08-123.646,60.069-128.727,128.727h13.384c5.725,0,10.379,4.643,10.379,10.379c0,5.725-4.654,10.379-10.379,10.379
		h-13.384c5.08,68.657,60.069,123.646,128.727,128.716v-13.373c0-5.725,4.643-10.379,10.379-10.379s10.379,4.654,10.379,10.379
		v13.373c68.657-5.07,123.646-60.059,128.727-128.716h-13.384c-5.725,0-10.379-4.654-10.379-10.379
		C371.343,287.411,375.997,282.768,381.722,282.768z"/>
	<path style="fill:#1E0478;" d="M332.403,216.733c3.059,3.059,3.9,7.703,2.109,11.636l-43.167,94.966
		c-0.033,0.087-0.076,0.153-0.109,0.229c-0.077,0.164-0.164,0.328-0.251,0.481c-0.066,0.142-0.153,0.262-0.229,0.393
		c-0.087,0.153-0.175,0.295-0.273,0.426c-0.098,0.164-0.219,0.306-0.328,0.459c-0.087,0.109-0.164,0.219-0.251,0.328
		c-0.415,0.513-0.885,0.983-1.398,1.398c-0.109,0.087-0.208,0.164-0.317,0.24c-0.153,0.12-0.306,0.229-0.459,0.339
		c-0.142,0.098-0.284,0.186-0.426,0.262c-0.131,0.087-0.262,0.164-0.404,0.24c-0.153,0.087-0.317,0.164-0.47,0.24
		c-0.076,0.044-0.153,0.087-0.229,0.12l-94.977,43.167c-1.377,0.634-2.841,0.929-4.283,0.929c-2.699,0-5.354-1.049-7.342-3.037
		c-3.059-3.059-3.9-7.692-2.109-11.636l43.167-94.966c0.033-0.077,0.076-0.153,0.109-0.229c0.076-0.153,0.164-0.317,0.24-0.481
		c0.076-0.131,0.164-0.262,0.24-0.393c0.087-0.142,0.175-0.284,0.262-0.426c0.109-0.153,0.229-0.306,0.35-0.459
		c0.076-0.109,0.153-0.219,0.24-0.317c0.415-0.514,0.885-0.983,1.398-1.409c0.098-0.076,0.208-0.153,0.317-0.229
		c0.153-0.12,0.306-0.24,0.47-0.35c0.131-0.087,0.273-0.175,0.404-0.262c0.142-0.077,0.273-0.164,0.415-0.24
		c0.153-0.087,0.317-0.164,0.47-0.24c0.076-0.033,0.153-0.076,0.229-0.12l94.977-43.167
		C324.712,212.844,329.344,213.674,332.403,216.733z M278.649,301.112l25.512-56.136l-56.136,25.522L278.649,301.112z
		 M207.84,341.308l56.136-25.512l-30.625-30.625L207.84,341.308z"/>
</g>
<polygon style="fill:#94E7EF;" points="304.16,244.976 278.649,301.112 248.024,270.498 "/>
<g>
	<rect x="239.316" y="20.759" style="fill:#9B8CCC;" width="33.356" height="19.546"/>
	<polygon style="fill:#9B8CCC;" points="263.976,315.796 207.84,341.308 233.351,285.172 	"/>
</g>
<g>
</g>
<g>
</g>
<g>
</g>
<g>
</g>
<g>
</g>
<g>
</g>
<g>
</g>
<g>
</g>
<g>
</g>
<g>
</g>
<g>
</g>
<g>
</g>
<g>
</g>
<g>
</g>
<g>
</g>
</svg>
